<?xml version="1.0" encoding="UTF-8" standalone="no"?>
<!-- Created with Inkscape (http://www.inkscape.org/) -->

<svg
   version="1.1"
   id="svg1"
   width="371.43915"
   height="295.99454"
   viewBox="0 0 371.43915 295.99454"
   xmlns="http://www.w3.org/2000/svg"
   xmlns:svg="http://www.w3.org/2000/svg">
  <defs
     id="defs1" />
  <g
     id="g1"
     transform="translate(3.8291049,-354.4697)">
    <path
       style="fill:#1a93c8;fill-opacity:1;stroke:#1a93c8;stroke-opacity:1"
       d="m 220.11005,640.84153 c -9.075,-5.01435 -16.88325,-9.46759 -17.35168,-9.89609 -0.46842,-0.4285 1.05667,-6.56132 3.38908,-13.6285 l 4.24075,-12.8494 -3.88907,-6.04103 c -2.139,-3.32256 -4.94313,-8.30905 -6.23141,-11.08108 l -2.34233,-5.04007 -13.90767,-2.819 -13.90767,-2.81901 v -19.78144 c 0,-17.98008 0.15936,-19.8275 1.75,-20.28731 0.9625,-0.27824 6.25,-1.4365 11.75,-2.57393 5.5,-1.13742 10.99308,-2.2938 12.20684,-2.56973 1.45097,-0.32985 2.92387,-2.1258 4.30028,-5.24346 1.15139,-2.60798 3.95467,-7.60185 6.2295,-11.0975 l 4.13605,-6.35572 -4.32303,-13.09871 c -2.37767,-7.2043 -3.92402,-13.24274 -3.43634,-13.41876 0.48769,-0.17602 8.3117,-4.57079 17.3867,-9.76616 l 16.5,-9.44611 3.92874,4.22059 c 2.16081,2.32132 6.24772,6.69559 9.08202,9.72059 l 5.15328,5.5 13.88032,-0.13156 13.88031,-0.13156 9.03767,-9.55913 9.03766,-9.55912 16.36416,9.35484 c 9.00028,5.14517 16.76184,9.75253 17.2479,10.23859 0.51166,0.51166 -0.97066,6.41264 -3.52067,14.01546 -4.29606,12.80868 -4.35795,13.17376 -2.51585,14.84084 1.3726,1.24219 10.16006,17.31854 10.45713,19.13098 0.018,0.10964 5.41797,1.34528 12,2.74586 6.58203,1.40059 12.97983,2.78196 14.21733,3.06972 2.24018,0.5209 2.25,0.60979 2.25,20.3704 v 19.84722 l -13.99397,2.76627 -13.99398,2.76627 -3.43621,7.11746 c -1.88991,3.9146 -4.75998,8.88306 -6.37793,11.04102 l -2.94171,3.92357 4.36143,13.00357 c 2.39878,7.15197 4.23402,13.13098 4.0783,13.2867 -1.2774,1.27741 -34.14419,19.37642 -34.78048,19.15285 -0.45432,-0.15964 -4.46989,-4.34025 -8.9235,-9.29025 l -8.09746,-9 -14.4812,-0.0446 -14.4812,-0.0446 -8.05827,9.29464 c -4.43205,5.11205 -8.35427,9.29213 -8.71605,9.28906 -0.36177,-0.003 -8.08277,-4.10832 -17.15777,-9.12267 z m 56.76191,-57.39377 c 6.48154,-1.92481 15.32016,-9.7567 17.75175,-15.7298 1.01422,-2.49141 1.73775,-6.93631 1.74958,-10.74826 0.0532,-17.1525 -12.89745,-29.0104 -30.32218,-27.76367 -20.35394,1.45632 -31.69021,22.20842 -22.21433,40.66542 3.32309,6.47268 8.31238,10.7289 15.47823,13.20402 6.52024,2.25213 10.91319,2.34528 17.55695,0.37229 z M 69.222041,548.2197 c -0.530802,-2.0625 -1.702778,-7.575 -2.604389,-12.25 -0.901612,-4.675 -1.861804,-9.27747 -2.13376,-10.2277 -0.271955,-0.95024 -3.300032,-3.06668 -6.729058,-4.7032 -3.429026,-1.63652 -8.338682,-4.58209 -10.910346,-6.5457 l -4.675752,-3.5702 -12.366943,4.0234 c -6.80182,2.21287 -12.610713,4.0234 -12.908653,4.0234 -0.29794,0 -4.940407,-7.72239 -10.3165942,-17.16088 l -9.774886,-17.16087 9.404194,-8.71476 9.4041942,-8.71476 0.147893,-13.37437 0.147893,-13.37436 -9.5458802,-9.02303 -9.54588,-9.02303 9.733507,-16.97697 c 5.3534292,-9.33734 9.8204882,-17.06494 9.9267982,-17.17245 0.106309,-0.10751 5.908194,1.62538 12.893076,3.85088 l 12.699787,4.04636 4.771403,-3.47926 c 2.624272,-1.9136 7.575947,-4.88646 11.003724,-6.60636 4.247148,-2.13102 6.395135,-3.84203 6.743465,-5.37161 0.281129,-1.2345 1.441764,-6.74453 2.579188,-12.24453 1.137425,-5.5 2.29569,-10.7875 2.573923,-11.75 0.460353,-1.59252 2.331043,-1.75 20.787313,-1.75 H 110.8077 l 2.8589,14.10447 2.8589,14.10448 5.21725,2.30731 c 2.86949,1.26903 7.95478,4.16634 11.30064,6.43847 l 6.08339,4.13115 12.4966,-3.93539 12.4966,-3.93538 5.34269,9.14244 c 4.66733,7.98677 13.32118,23.00463 14.2617,24.74971 0.18001,0.334 -4.00489,4.50875 -9.29977,9.27723 l -9.62705,8.66996 v 13.59443 13.59443 l 9.40625,8.51977 c 5.17344,4.68588 9.25974,9.01863 9.08067,9.62835 -0.4992,1.69971 -18.41113,32.63683 -19.16623,33.10351 -0.36522,0.22571 -6.12033,-1.36911 -12.78915,-3.54406 l -12.12513,-3.95445 -5.37489,3.75178 c -2.95619,2.06349 -8.05271,5.02442 -11.32561,6.57986 l -5.95071,2.82808 -2.85238,13.92192 -2.85239,13.92193 H 90.517558 70.187136 Z m 32.321519,-68.65777 c 5.38332,-2.2493 12.10127,-9.08331 14.56976,-14.82147 1.8463,-4.29184 2.15282,-6.48082 1.78212,-12.72705 -0.48513,-8.17453 -1.97343,-11.91041 -7.04681,-17.68867 -6.73602,-7.67191 -19.912082,-10.55967 -30.977589,-6.78927 -6.710637,2.28654 -14.131548,10.4612 -16.315047,17.97217 -5.506443,18.9415 9.517112,37.72552 28.797954,36.0062 3.15914,-0.28171 7.29447,-1.16007 9.189612,-1.95191 z"
       id="path1" />
  </g>
</svg>
